<?xml version="1.0" encoding="utf-8"?>
<!-- Generator: Adobe Illustrator 19.2.1, SVG Export Plug-In . SVG Version: 6.00 Build 0)  -->
<svg version="1.1" id="Layer_1" xmlns="http://www.w3.org/2000/svg" xmlns:xlink="http://www.w3.org/1999/xlink" x="0px" y="0px"
	 viewBox="0 0 283.5 283.5" enable-background="new 0 0 283.5 283.5" xml:space="preserve">
<circle fill="#D03131" cx="141.7" cy="141.7" r="139.3"/>
<path fill="#FFFFFF" d="M56.6,162.8c-12.4,0-21.8-10-21.8-22.1c0-12.4,10.1-22.9,22.2-22.9c4.3,0,10.7,1.3,13.3,5.2
	c0.9,1.3,1.3,2.6,1.3,4c0,3.2-2.3,5.8-5.5,5.8c-1.3,0-2.5-0.4-3.5-1.2l2.2-2.6c0.4,0.3,1,0.4,1.4,0.4c1.2,0,2-1.2,2-2.5
	c0-0.9-0.4-1.7-1.2-2.5c-2.3-2.5-6.6-3.3-10-3.3c-10.4,0-18.9,9.1-18.9,19.6c0,10.1,7.9,18.6,18.5,18.6c6.1,0,11.5-2.9,14.9-7.5
	l2.9,1.9C70.1,159.9,63.3,162.8,56.6,162.8z"/>
<path fill="#FFFFFF" d="M108.4,161.9c-3.3,0-5.6-2.5-5.6-5.5v-16.3c0-4.8-2.6-6.9-7.2-6.9c-4.5,0-7.2,2.5-10.1,6.2v21.8H82v-44.6
	h3.5v18.7c2.6-3.7,6.1-5.3,10.5-5.3c6.9,0,10.2,3.5,10.2,10v16.4c0,1.3,1,2,2.2,2c0.7,0,1.4-0.3,1.7-0.9l2.9,1.9
	C112,161.1,110.3,161.9,108.4,161.9z"/>
<path fill="#FFFFFF" d="M182.8,161.3h-3.5l-8.5-25.4l-8.5,25.4h-3.6l-8.5-25.5c-0.6-1.3-1.9-2.7-3-3.5l1.9-2.7
	c2.3,1.6,3.9,3.7,4.9,6.6l6.6,19.8l8.5-25.4h3.5l8.5,25.4l8.5-25.4h3.5L182.8,161.3z"/>
<path fill="#FFFFFF" d="M208.8,162.1c-4.2,0-7.8-1.3-10.7-3.6l1.7-2.6c2.9,1.9,5.9,2.9,9.2,2.9c3.9,0,7.4-1.4,7.4-5.6
	c0-2.6-1.4-4.2-4.3-5.5c-5.3-2.5-12.4-3.3-12.4-9.8c0-5,4.2-7.8,9.2-7.8c2.6,0,6.1,0.7,8.1,1.9l-0.7,3.2c-2.6-1.3-5.5-1.9-7.4-1.9
	c-3.6,0-5.5,1.7-5.5,4.2c0,4.9,7.6,5.6,12.4,8.4c2.9,1.7,4.3,3.9,4.3,7.2C220,159.6,214.6,162.1,208.8,162.1z"/>
<path fill="#FFFFFF" d="M240.7,133.5c-2.5,0-3.9,0.4-5.3,1.6c-1,0.9-2.6,2.5-3.6,4.5v21.9h-3.5v-21.6c0-3.3-0.9-5.6-2.5-7.4l2.2-2
	c1.9,1.4,2.9,3.2,3.5,5.3c1-1.9,2.5-3.3,3.9-4.2c1.6-1,3.5-1.3,5.3-1.3c0.9,0,1.3,0,3.6,0.4v3.2
	C242.5,133.5,241.5,133.5,240.7,133.5z"/>
<path fill="#FFFFFF" d="M140.6,155.9c-3.2,1.6-6.2,2.9-10.1,2.9c-6.3,0-9.5-3.5-10.2-9.7h7.4c8.4,0,13.8-3.3,13.8-9.5
	c0-5.8-5-9.5-11.1-9.5c-9.8,0-13.8,9.1-13.8,17c0,8.4,4.3,14.7,14,14.7c4.5,0,8.4-1.4,11.7-3.6L140.6,155.9z M130.5,133.2
	c3.9,0,7.5,2,7.5,6.3c0,4.8-4.3,6.3-10.2,6.3h-7.6C120.1,141,123,133.2,130.5,133.2z"/>
<path fill="#FFFFFF" d="M141.7,273.9c-72.9,0-132.2-59.3-132.2-132.2S68.9,9.6,141.7,9.6c72.9,0,132.2,59.3,132.2,132.2
	S214.6,273.9,141.7,273.9z M141.7,10.6c-72.3,0-131.2,58.8-131.2,131.2c0,72.3,58.8,131.2,131.2,131.2S272.9,214,272.9,141.7
	C272.9,69.4,214,10.6,141.7,10.6z"/>
</svg>
